<svg viewBox="-100 -100 200 200" xmlns="http://www.w3.org/2000/svg">
    <path fill="rgb(54, 147, 227)"
        d="M 29.16846255191451 -92.510544222578 A 14.5 14.5 0 0 0 20.447994366290583 -64.85275265087942 A 68 68 0 0 1 66.38812848415547 14.717893747790995 A 14.5 14.5 0 0 0 94.70071269063354 20.99464255199598 A 97 97 0 0 0 29.16846255191451 -92.510544222578"
        id="path1" />
    <path fill="rgb(54, 147, 227, 0.38)"
        d="M 65.53225013871905 71.51590167058204 A 14.5 14.5 0 0 0 45.94013411786489 50.134858903088436 A 68 68 0 0 1 -45.94013411786489 50.134858903088436 A 14.5 14.5 0 0 0 -65.53225013871905 71.51590167058204 A 97 97 0 0 0 65.53225013871905 71.51590167058204"
        id="path2" style="fill:#0478dd;fill-opacity:0.37704918" />
    <path fill="rgb(54, 147, 227, 0.38)"
        d="M -94.70071269063352 20.99464255199601 A 14.5 14.5 0 0 0 -66.38812848415546 14.717893747791017 A 68 68 0 0 1 -20.44799436629062 -64.85275265087941 A 14.5 14.5 0 0 0 -29.16846255191456 -92.51054422257799 A 97 97 0 0 0 -94.70071269063352 20.99464255199601"
        id="path3" style="fill:#0478dd;fill-opacity:0.37704918" />
    <text font-size="97px" font-family="Roboto" fill="#0478dd" x="-0.16577148"
        style="line-height:0;text-align:center;text-anchor:middle" y="34.480469">
        4
    </text>
</svg>